<svg xmlns="http://www.w3.org/2000/svg" xmlns:v="https://svgstorm.com"
viewBox = "0 0 1350 619"
width="1350"
height="619">
<g fill="#000000" fill-opacity="0.00" stroke="None"><path d="
M 0.00 619.00 
L 1350.00 619.00
L 1350.00 0.00
L 0.00 0.00
L 0.00 619.00
M 767.00 256.00 
C 757.98 272.81 755.59 293.90 760.00 313.00
C 770.88 333.82 800.84 344.25 821.00 331.00
C 825.19 324.79 826.65 317.73 826.00 310.00
C 816.33 310.00 806.67 310.00 797.00 310.00
C 797.00 301.67 797.00 293.33 797.00 285.00
C 816.00 285.00 835.00 285.00 854.00 285.00
C 854.26 307.61 856.22 333.53 841.00 350.00
C 829.10 371.46 796.86 368.81 775.78 364.22 C 755.58 359.99 738.64 340.74 734.00 321.00
C 724.94 294.94 731.27 264.48 747.00 243.00
C 765.86 212.91 807.20 209.05 838.68 217.32 C 854.67 218.87 845.70 238.93 848.00 250.00
C 834.36 245.51 820.89 238.34 805.00 241.00 C 791.16 242.36 777.84 247.55 767.00 256.00 Z"/>
</g>
<g fill="#EC1C24" fill-opacity="0.96" stroke="None"><path d="
M 747.00 243.00 
C 754.13 246.24 759.50 253.10 767.00 256.00
C 777.84 247.55 791.16 242.36 805.00 241.00 C 820.89 238.34 834.36 245.51 848.00 250.00
C 845.70 238.93 854.67 218.87 838.68 217.32 C 807.20 209.05 765.86 212.91 747.00 243.00 Z"/>
</g>
<g fill="#FDC917" fill-opacity="0.96" stroke="None"><path d="
M 734.00 321.00 
C 742.69 318.39 750.89 314.00 760.00 313.00
C 755.59 293.90 757.98 272.81 767.00 256.00
C 759.50 253.10 754.13 246.24 747.00 243.00
C 731.27 264.48 724.94 294.94 734.00 321.00 Z"/>
</g>
<g fill="#00A7F1" fill-opacity="0.99" stroke="None"><path d="
M 821.00 331.00 
C 828.47 335.05 834.90 344.03 841.00 350.00
C 856.22 333.53 854.26 307.61 854.00 285.00
C 835.00 285.00 816.00 285.00 797.00 285.00
C 797.00 293.33 797.00 301.67 797.00 310.00
C 806.67 310.00 816.33 310.00 826.00 310.00
C 826.65 317.73 825.19 324.79 821.00 331.00 Z"/>
</g>
<g fill="#0FD045" fill-opacity="0.97" stroke="None"><path d="
M 734.00 321.00 
C 738.64 340.74 755.58 359.99 775.78 364.22 C 796.86 368.81 829.10 371.46 841.00 350.00
C 834.90 344.03 828.47 335.05 821.00 331.00
C 800.84 344.25 770.88 333.82 760.00 313.00
C 750.89 314.00 742.69 318.39 734.00 321.00 Z"/>
</g>
</svg>